<?xml version="1.0" encoding="UTF-8"?>
<!-- Created with Inkscape (http://www.inkscape.org/) -->
<svg width="150mm" height="11mm" version="1.1" viewBox="0 0 150 11" xmlns="http://www.w3.org/2000/svg">
 <g>
  <g stroke-width=".26458" aria-label="Ashet Technologies">
   <path d="m9.0025 8.6327h-1.8944v-1.7992h-3.7888v1.7992l-1.8838 1.0689v-5.8949l1.4182-1.4182h4.7307l1.4182 1.4182zm-1.8944-3.175v-1.6722h-3.7888v1.6722z"/>
   <path d="m18.75 6.7065-1.4182 1.9156h-7.239l1.3864-1.3864h4.7519l0.4445-0.52916-0.4445-0.56091h-4.7625l-1.3758-1.8415 1.4182-1.9156h7.239l-1.397 1.3864h-4.7413l-0.45508 0.52916 0.45508 0.56091h4.7625z"/>
   <path d="m27.333 8.6327h-1.8838v-2.4871h-3.7253v2.4871l-1.8838-0.010583v-6.2336h1.8838v2.4871h3.7253v-2.4871l1.8838-1.0901z"/>
   <path d="m36.17 2.3885-1.3864 1.397h-4.191v1.0901h4.6672l-1.27 1.27h-3.3972v1.0901h5.3551l-1.397 1.397h-5.842v-6.2441z"/>
   <path d="m45.145 2.3885-1.3864 1.3864h-1.8521v5.9266l-1.8838-1.0795v-4.8472h-1.8521l-1.3864-1.3864z"/>
   <path d="m59.58 2.3885-1.3864 1.3864h-1.8521v4.8472l-1.8838 1.0795v-5.9266h-1.8521l-1.3864-1.3864z"/>
   <path d="m67.909 2.3885-1.3864 1.397h-4.191v1.0901h4.6672l-1.27 1.27h-3.3972v1.0901h5.3552l-1.397 1.397h-5.842v-6.2441z"/>
   <path d="m75.984 2.3885-1.3864 1.397h-4.191v3.4502h5.3551l-1.397 1.397h-4.4238l-1.4182-1.4182v-3.4078l1.4182-1.4182z"/>
   <path d="m84.207 8.6327h-1.8838v-2.4871h-3.7253v2.4871l-1.8838-0.010583v-6.2336h1.8838v2.4871h3.7253v-2.4871l1.8838-1.0901z"/>
   <path d="m93.32 8.6221h-1.4287l-4.4238-3.6407v3.6407l-1.8838-0.010583v-6.223h1.3441l4.5085 3.7147v-3.7147l1.8838-1.0901z"/>
   <path d="m102.65 7.2039-1.4182 1.4182h-5.1964l-1.4182-1.4182v-3.3972l1.4182-1.4182h5.1964l1.4182 1.4182zm-1.8838 0.03175v-3.4607h-4.2651v3.4607z"/>
   <path d="m111.21 7.2357-1.397 1.397h-5.842v-6.2441l1.8838-1.0901v5.9372z"/>
   <path d="m119.69 7.2039-1.4182 1.4182h-5.1964l-1.4182-1.4182v-3.3972l1.4182-1.4182h5.1964l1.4182 1.4182zm-1.8838 0.03175v-3.4607h-4.2651v3.4607z"/>
   <path d="m128.4 2.3885-1.3864 1.397h-4.191v3.4502h3.4713v-1.0901h-1.2912l-1.27-1.27h4.445v2.3601l-1.397 1.397h-4.4238l-1.4182-1.4182v-3.4078l1.4182-1.4182z"/>
   <path d="m131.43 8.6327-1.8838-0.010583v-6.2336l1.8838-1.0901z"/>
   <path d="m140.27 2.3885-1.3864 1.397h-4.191v1.0901h4.6672l-1.27 1.27h-3.3972v1.0901h5.3552l-1.397 1.397h-5.842v-6.2441z"/>
   <path d="m148.56 6.7065-1.4182 1.9156h-7.239l1.3864-1.3864h4.7519l0.4445-0.52916-0.4445-0.56091h-4.7625l-1.3758-1.8415 1.4182-1.9156h7.239l-1.397 1.3864h-4.7413l-0.45508 0.52916 0.45508 0.56091h4.7625z"/>
  </g>
 </g>
</svg>